<svg xmlns="http://www.w3.org/2000/svg" version="1.1" xmlns:xlink="http://www.w3.org/1999/xlink" xmlns:svgjs="http://svgjs.dev/svgjs" width="2000" height="1500" viewBox="0 0 2000 1500"><rect width="2000" height="1500" fill="#ffffff"></rect><g transform="matrix(0.75,0,0,0.75,249.85735864499304,610.7458850162196)"><svg viewBox="0 0 396 74" data-background-color="#1e421d" preserveAspectRatio="xMidYMid meet" height="373" width="2000" xmlns="http://www.w3.org/2000/svg" xmlns:xlink="http://www.w3.org/1999/xlink"><g id="tight-bounds" transform="matrix(1,0,0,1,0.24000000000003752,-0.047473003615749576)"><svg viewBox="0 0 395.5199999999999 74.09494600723151" height="74.09494600723151" width="395.5199999999999"><g><svg viewBox="0 0 511.4488010574154 95.81252856950974" height="74.09494600723151" width="395.5199999999999"><g><rect width="6.252151016590355" height="69.67553633310945" x="93.30976256283981" y="13.068496118200144" fill="#000000" opacity="1" stroke-width="0" stroke="transparent" fill-opacity="1" class="rect-qz-0" data-fill-palette-color="primary" rx="1%" id="qz-0" data-palette-color="#e1e587"></rect></g><g transform="matrix(1,0,0,1,115.9288010574154,13.24181834788449)"><svg viewBox="0 0 395.52 69.32889187374076" height="69.32889187374076" width="395.52"><g id="textblocktransform"><svg viewBox="0 0 395.52 69.32889187374076" height="69.32889187374076" width="395.52" id="textblock"><g><svg viewBox="0 0 395.52 69.32889187374076" height="69.32889187374076" width="395.52"><g transform="matrix(1,0,0,1,0,0)"><svg width="395.52" viewBox="1.7 -38.2 217.02000000000004 39.150000000000006" height="69.32889187374076" data-palette-color="#e1e587"><g class="wordmark-text-0" data-fill-palette-color="primary" id="text-0"><path d="M8.75 0.45L8.55 0.4Q7.95 0.25 8 0.25L8 0.25Q7.1-3.45 6-10.8L6-10.8 3.25-28.65 2.8-30.85Q1.7-35.15 1.7-36.9L1.7-36.9Q1.7-37.25 1.93-37.52 2.15-37.8 2.4-37.8L2.4-37.8Q2.55-37.8 2.75-37.7L2.75-37.7Q3-37.6 3.2-37.15L3.2-37.15Q3.4-36.75 3.4-36.4L3.4-36.4 3.5-35.7 4.2-31.85 4.65-29.2 7.15-12.05 7.8-7.3Q8.2-4.9 8.45-2.75L8.45-2.75 8.8-6.3 9.35-12.05 10.55-23Q11-27.65 11.2-29.1L11.2-29.1 11.45-31.7 11.8-34.2Q12.05-35.7 12.15-37L12.15-37Q12.25-37.95 13.1-37.95L13.1-37.95 13.4-37.75 13.3-37.75 13.8-37.35Q13.8-35.9 13.4-33.1L13.4-33.1 13.1-31.15 12.95-29.9Q12.3-24.45 12.15-23.1L12.15-23.1Q11.4-16.75 10.58-9.35 9.75-1.95 9.7-0.65L9.7-0.65Q9.3 0.45 8.75 0.45L8.75 0.45ZM8.35-2.45L8.5-2.45 8.45-2.6 8.35-2.45ZM20.8 0.65Q19.9 0.65 19.8-0.4L19.8-0.4 19.8-1.05Q19.85-1.3 19.85-1.65L19.85-1.65 19.65-1.85Q20.05-2.9 20.05-3.9L20.05-3.9Q20.05-5.05 19.9-7.2L19.9-7.2 19.8-10.5Q19.8-13 19.95-18L19.95-18Q20.15-22.45 20.15-25.55L20.15-25.55 20.05-28.55Q19.95-29.9 19.95-31.55L19.95-31.55Q19.95-32.3 20.3-32.63 20.65-32.95 21.4-32.95L21.4-32.95Q21.9-32.95 22.2-32.65L22.2-32.65Q22.3-32.6 23.65-32.45L23.65-32.45Q24.9-32.3 25.8-32L25.8-32Q26.75-31.7 26.75-31.25L26.75-31.25Q26.75-30.75 25.8-30.25L25.8-30.25Q22.95-31.2 21.75-31.2L21.75-31.2 21.5-30.9Q21.55-30.45 21.55-28.75L21.55-28.75Q21.55-26.6 21.45-24.9L21.45-24.9Q21.4-23.15 21.4-21L21.4-21Q21.4-19.6 22.1-19.6L22.1-19.6 22.9-19.65Q23.3-19.7 23.75-19.7L23.75-19.7Q25.7-19.7 25.7-18.8L25.7-18.8Q25.7-18.25 25.45-17.88 25.2-17.5 24.7-17.5L24.7-17.5Q23.95-17.5 23.55-17.9L23.55-17.9 21.95-18.15 21.7-18.15 21.45-17.9 21.45-17.75Q21.55-16.9 21.55-13.8L21.55-13.8Q21.55-11.85 21.5-10.25L21.5-10.25 21.45-6.7Q21.45-4.75 21.6-2.7L21.6-2.7Q21.65-1.55 22.1-1.18 22.55-0.8 23.75-0.8L23.75-0.8 24.65-0.85Q25.1-0.9 25.65-0.9L25.65-0.9Q27.1-0.9 27.1-0.25L27.1-0.25Q27.1 0.65 24.9 0.65L24.9 0.65 20.8 0.65ZM38.55 0.35Q36.24 0.35 35.14-0.2 34.05-0.75 33.52-2.33 32.99-3.9 32.59-7.35L32.59-7.35Q31.99-12.4 31.99-15.2L31.99-15.2Q31.99-16.9 32.2-19.1L32.2-19.1 32.49-22.25Q32.74-26 33.07-27.93 33.39-29.85 34.52-31.33 35.64-32.8 37.99-33.05L37.99-33.05Q38.24-33.1 38.8-33.1L38.8-33.1Q40.34-33.1 40.34-32.4L40.34-32.4Q40.34-32.1 40.02-31.88 39.7-31.65 39.34-31.65L39.34-31.65 38.84-31.7 38.39-31.75Q37.55-31.75 36.87-31.2 36.2-30.65 35.74-29.6L35.74-29.6Q34.7-27.1 34.39-24.7L34.39-24.7Q33.99-21.55 33.89-19.2L33.89-19.2 33.84-15.35Q33.84-12.9 33.99-11.7L33.99-11.7Q34.34-11.15 34.47-10.03 34.59-8.9 34.7-6.95L34.7-6.95Q34.8-5.2 35.14-3.98 35.49-2.75 36.39-1.95L36.39-1.95Q37.39-1.1 39.14-1.1L39.14-1.1Q40.59-1.1 41.2-2.7L41.2-2.7Q41.89-4.4 41.99-6.2L41.99-6.2Q42.14-8.45 42.14-10L42.14-10 42.14-12.75Q41.64-13.25 40.39-13.25L40.39-13.25 39.99-13.25Q39.74-13.2 39.45-13.2L39.45-13.2Q38.24-13.2 38.24-13.8L38.24-13.8Q38.24-14.65 39.45-14.65L39.45-14.65Q40.3-14.65 40.84-14.6L40.84-14.6 41.95-14.55Q42.89-14.4 43.45-14.2L43.45-14.2Q44.05-14 44.05-13.65L44.05-13.65Q44.05-13 43.74-11.8L43.74-11.8Q43.49-10.4 43.49-9.9L43.49-9.9Q43.49-7.8 43.59-6.1L43.59-6.1Q43.64-4.35 43.64-2.25L43.64-2.25Q41.09 0.35 38.55 0.35L38.55 0.35ZM59.44 0.45Q58.69 0.45 58.49 0.28 58.29 0.1 58.19-0.65L58.19-0.65Q57.74-4.3 57.64-5.2L57.64-5.2 57.39-7.2Q56.29-7.45 54.89-7.45L54.89-7.45 53.09-7.55Q51.89-7.7 51.34-7.7L51.34-7.7Q51.04-7.7 50.99-7.45L50.99-7.45Q50.99-7.3 50.94-7.3L50.94-7.3 50.84-6.3Q50.79-5.4 50.29-2.7L50.29-2.7Q50.04-1.35 49.69-0.6L49.69-0.6Q49.29 0.25 48.94 0.25L48.94 0.25Q48.64 0.25 48.29-0.03 47.94-0.3 47.94-0.6L47.94-0.6 47.99-0.75 48.04-0.9Q48.94-4.45 49.54-7.95L49.54-7.95 50.14-11.05 50.74-14.85Q50.74-14.85 51.29-18.15L51.29-18.15Q51.54-19.5 52.19-22.5L52.19-22.5Q52.89-25.9 53.04-27.15L53.04-27.15Q53.09-27.3 53.24-29L53.24-29Q53.44-30.9 53.59-31.8L53.59-31.8Q53.74-33.1 53.89-33.3L53.89-33.3 54.24-33.3Q54.39-33.25 54.59-33.25L54.59-33.25Q55.19-33.25 55.49-33.55L55.49-33.55Q55.84-33.55 56.12-33.33 56.39-33.1 56.39-32.8L56.39-32.8Q56.39-30.4 56.74-27.3L56.74-27.3Q56.94-25.7 57.04-24.65L57.04-24.65Q57.59-18.2 59.84-0.45L59.84-0.45 59.84-0.3Q59.84 0.2 59.44 0.45L59.44 0.45ZM56.64-8.55L57.14-8.55Q56.64-15.75 55.24-29.8L55.24-29.8 52.54-16.45Q51.39-10.7 51.39-9.2L51.39-9.2Q51.39-8.95 53.29-8.75 55.19-8.55 56.64-8.55L56.64-8.55ZM77.99 0.2Q77.59 0.2 77.42-0.1 77.24-0.4 77.09-1L77.09-1Q77.04-1.4 76.89-1.7L76.89-1.7 76.94-1.85Q76.54-4.2 75.24-7.6L75.24-7.6 74.34-10.2Q74.24-10.3 73.39-12.75L73.39-12.75 72.99-13.95Q68.49-27.85 67.34-29L67.34-29Q66.94-27.65 66.94-25.5L66.94-25.5Q66.94-24.35 66.99-23.5L66.99-23.5 67.04-21.55 66.99-20.35Q66.94-19.8 66.94-19.15L66.94-19.15Q66.94-18.05 67.04-17.25L67.04-17.25Q67.14-15.65 67.14-15.65L67.14-15.65 66.99-15.65Q66.99-7.3 67.34-6.45L67.34-6.45 67.34-1.95Q67.54-1.55 67.54-0.9L67.54-0.9Q67.54-0.5 67.27-0.2 66.99 0.1 66.59 0.1L66.59 0.1Q65.54 0.1 65.54-2.6L65.54-2.6 65.64-4.2Q65.74-4.95 65.74-5.85L65.74-5.85Q65.74-8.25 65.59-13.05L65.59-13.05Q65.44-17.85 65.44-20.25L65.44-20.25Q65.44-21.7 65.59-24.7L65.59-24.7Q65.74-27.65 65.74-29.1L65.74-29.1 65.74-29.75Q65.74-32.2 66.64-32.95L66.64-32.95 66.79-32.8 67.29-32.9Q67.49-32.85 67.74-32.6L67.74-32.6Q67.94-32.4 67.94-32.15L67.94-32.15 68.04-31.85Q68.04-31.75 68.06-31.68 68.09-31.6 68.09-31.6L68.09-31.6Q68.89-28.05 71.69-21.65L71.69-21.65Q74.54-14.9 75.24-12.7L75.24-12.7Q75.74-10.95 76.04-9.6L76.04-9.6Q76.99-5.35 78.29-3.05L78.29-3.05 78.39-3.2Q79.54-14.3 79.54-30.45L79.54-30.45 79.49-31.05Q79.44-31.3 79.44-31.7L79.44-31.7Q79.44-32.75 80.14-32.75L80.14-32.75Q80.59-32.75 80.92-32.3 81.24-31.85 81.24-31.3L81.24-31.3 81.24-27.95 80.99-27.55Q80.99-22.8 80.44-11.95 79.89-1.1 79.39-0.15L79.39-0.15 78.54 0.05 78.54 0.1 78.49 0.05 77.99 0.2Z" fill="#000000" data-fill-palette-color="primary"></path><path d="M95.34 0.1Q94.54 0.1 94.54-1.2L94.54-1.2 94.54-4.9 94.39-7.95Q93.94-16.15 93.94-20L93.94-20Q93.94-22.1 93.39-33.1L93.39-33.1Q93.29-35.5 93.24-36.18 93.19-36.85 93.19-36.9L93.19-36.9 93.19-37.25Q93.19-37.6 93.69-37.7L93.69-37.7Q93.99-37.8 95.44-37.8L95.44-37.8 96.54-37.8 97.94-37.8Q98.34-37.8 98.54-37.48 98.74-37.15 98.74-36.65L98.74-36.65Q98.74-36.15 97.84-36.15L97.84-36.15 96.69-36.2 95.39-36.2Q94.99-36.2 94.89-36.05 94.79-35.9 94.79-35.25L94.79-35.25Q94.79-34.25 95.14-27.95L95.14-27.95Q95.49-21.65 95.49-20.6L95.49-20.6Q96.09-20.6 97.19-20.9L97.19-20.9Q98.34-21.2 98.89-21.2L98.89-21.2Q99.19-21.2 99.41-20.85 99.64-20.5 99.64-20.2L99.64-20.2Q99.64-19.65 98.84-19.48 98.04-19.3 96.54-19.2L96.54-19.2Q95.49-19.05 95.49-18.6L95.49-18.6Q95.49-16.35 95.99-10.2L95.99-10.2Q96.44-4.6 96.44-1.75L96.44-1.75 96.29-1.5Q96.44-1.15 96.44-0.85L96.44-0.85Q96.44 0.1 95.34 0.1L95.34 0.1ZM111.39 0.95Q105.54 0.95 105.54-17.45L105.54-17.45 105.54-19.2Q105.54-33.15 109.14-33.15L109.14-33.15Q109.39-33.15 109.84-33L109.84-33Q111.44-32.45 112.99-32.3L112.99-32.3Q113.94-32.1 114.89-30.35L114.89-30.35Q115.94-28.55 116.46-25.6 116.99-22.65 116.99-19.55L116.99-19.55 116.89-19.3Q116.89-17.65 116.94-16.35L116.94-16.35 116.99-13.35Q116.99-10.8 116.79-8.75L116.79-8.75Q116.49-5.65 115.79-3.4L115.79-3.4Q115.33-2.05 114.76-1.15 114.19-0.25 113.33 0.35L113.33 0.35Q112.54 0.95 111.39 0.95L111.39 0.95ZM111.19-0.5Q113.14-0.5 114.08-3.25L114.08-3.25Q115.04-6.05 115.24-8.95L115.24-8.95Q115.44-11.95 115.44-13.75L115.44-13.75Q115.44-15.75 115.14-19.65L115.14-19.65Q114.89-24 114.89-25.55L114.89-25.55 114.69-25.95 114.79-26.2Q114.79-28.4 113.56-30 112.34-31.6 110.59-31.6L110.59-31.6Q108.29-31.6 107.84-29.4L107.84-29.4Q107.74-28.65 107.64-27.25L107.64-27.25Q107.64-23.55 107.34-22.2L107.34-22.2Q107.34-21.45 107.19-19.85L107.19-19.85 107.09-17.5Q107.09-16.4 107.14-15.55L107.14-15.55 107.19-13.55Q107.19-11.2 107.59-8.15L107.59-8.15Q107.89-5.9 108.29-4.35 108.69-2.8 109.44-1.7L109.44-1.7Q110.19-0.5 111.19-0.5L111.19-0.5ZM128.68 0.95Q122.83 0.95 122.83-17.45L122.83-17.45 122.83-19.2Q122.83-33.15 126.43-33.15L126.43-33.15Q126.68-33.15 127.13-33L127.13-33Q128.73-32.45 130.28-32.3L130.28-32.3Q131.23-32.1 132.18-30.35L132.18-30.35Q133.23-28.55 133.76-25.6 134.28-22.65 134.28-19.55L134.28-19.55 134.18-19.3Q134.18-17.65 134.23-16.35L134.23-16.35 134.28-13.35Q134.28-10.8 134.08-8.75L134.08-8.75Q133.78-5.65 133.08-3.4L133.08-3.4Q132.63-2.05 132.06-1.15 131.48-0.25 130.63 0.35L130.63 0.35Q129.83 0.95 128.68 0.95L128.68 0.95ZM128.48-0.5Q130.43-0.5 131.38-3.25L131.38-3.25Q132.33-6.05 132.53-8.95L132.53-8.95Q132.73-11.95 132.73-13.75L132.73-13.75Q132.73-15.75 132.43-19.65L132.43-19.65Q132.18-24 132.18-25.55L132.18-25.55 131.98-25.95 132.08-26.2Q132.08-28.4 130.86-30 129.63-31.6 127.88-31.6L127.88-31.6Q125.58-31.6 125.13-29.4L125.13-29.4Q125.03-28.65 124.93-27.25L124.93-27.25Q124.93-23.55 124.63-22.2L124.63-22.2Q124.63-21.45 124.48-19.85L124.48-19.85 124.38-17.5Q124.38-16.4 124.43-15.55L124.43-15.55 124.48-13.55Q124.48-11.2 124.88-8.15L124.88-8.15Q125.18-5.9 125.58-4.35 125.98-2.8 126.73-1.7L126.73-1.7Q127.48-0.5 128.48-0.5L128.48-0.5ZM141.73 0.25Q141.33 0.25 141.33-1.1L141.33-1.1Q141.13-4.55 141.13-9.8L141.13-9.8Q141.13-13.1 141.18-15.7L141.18-15.7 141.23-21.6Q141.23-25.4 141.03-31L141.03-31Q140.58-31.4 140.58-32L140.58-32Q140.58-32.35 141.01-32.73 141.43-33.1 141.78-33.1L141.78-33.1Q142.18-33.1 142.53-32.7L142.53-32.7 143.08-32.25Q143.38-32.1 144.23-31.95L144.23-31.95Q145.08-31.8 145.43-31.65L145.43-31.65Q146.18-31.25 147.43-30.1L147.43-30.1Q148.63-28.9 149.08-28.6L149.08-28.6 149.03-28.5Q149.08-28.2 149.78-27.2L149.78-27.2Q150.33-26.45 150.68-25.8L150.68-25.8Q151.48-23.5 151.48-19.85L151.48-19.85Q151.48-19.2 151.43-18.7L151.43-18.7 151.43-17.5 151.43-17.1 151.38-16.6Q151.38-15.65 151.68-15.1L151.68-15.1Q151.38-13.5 150.93-9.05L150.93-9.05Q150.78-7.75 150.43-6.3 150.08-4.85 149.58-3.9L149.58-3.9Q148.28-1.45 145.23 0.25L145.23 0.25 141.73 0.25ZM143.48-1.2L145.03-1.2Q145.38-1.6 145.68-1.85L145.68-1.85Q145.68-1.85 146.03-2.1L146.03-2.1 146.43-2.45Q149.93-5.6 149.93-14.45L149.93-14.45 149.93-15.4Q149.88-15.8 149.88-16.25L149.88-16.25 149.68-21.3Q149.53-24.2 147.93-27.3L147.93-27.3Q147.18-28.85 145.91-29.83 144.63-30.8 143.23-30.8L143.23-30.8Q142.63-30.8 142.63-21.55L142.63-21.55Q142.63-10.85 143.23-2.9L143.23-2.9 143.18-1.95 143.38-1.85 143.48-1.2Z" fill="#000000" data-fill-palette-color="accent"></path><path d="M170.33 0.8Q168.93 0.8 167.38-0.3 165.83-1.4 165.18-2.8L165.18-2.8Q164.58-4.1 163.95-11.05 163.33-18 163.33-21.4L163.33-21.4 163.33-24.05Q163.28-25.2 163.28-26.6L163.28-26.6Q163.28-29.2 163.58-31.75L163.58-31.75Q163.78-33 164.1-33.9 164.43-34.8 165.03-35.65L165.03-35.65Q166.13-37.35 168.33-37.9L168.33-37.9Q169.48-38.2 170.88-38.2L170.88-38.2Q171.83-38.2 172.8-37.65 173.78-37.1 173.78-36.35L173.78-36.35Q173.78-35.8 172.98-35.8L172.98-35.8Q172.68-35.8 171.83-36.15L171.83-36.15Q171.08-36.5 170.48-36.5L170.48-36.5Q169.08-36.5 167.95-35.93 166.83-35.35 166.18-34.4L166.18-34.4Q165.63-33.6 165.23-32.2 164.83-30.8 164.73-29.4L164.73-29.4Q164.58-28.15 164.58-26.4L164.58-26.4 164.63-23.6Q164.68-22.4 164.68-21L164.68-21Q164.68-17.55 165.38-10.85 166.08-4.15 166.73-3.1L166.73-3.1Q167.33-2.15 168.5-1.65 169.68-1.15 170.98-1.15L170.98-1.15Q173.28-1.15 174.48-2.6L174.48-2.6Q174.93-3.2 175.43-3.2L175.43-3.2Q175.88-3.2 175.88-2.5L175.88-2.5Q175.88-1.6 175.33-0.93 174.78-0.25 173.83 0.1L173.83 0.1Q172.23 0.8 170.33 0.8L170.33 0.8ZM181.22 0.65Q180.52 0.65 180.38-0.5L180.38-0.5Q180.47-0.8 180.47-2.15L180.47-2.15Q180.47-6.75 180.63-15.8L180.63-15.8Q180.77-24.8 180.77-28.8L180.77-28.8 180.88-30.6 181.02-32.1Q181.02-32.45 181.38-32.45L181.38-32.45Q181.63-32.45 182.07-32.3L182.07-32.3 182.22-32.25Q182.22-31.15 182.17-30.25L182.17-30.25 182.17-28.3 182.17-22.85Q182.22-20.45 182.22-17.4L182.22-17.4Q182.17-17.15 182.17-16.3L182.17-16.3 182.13-15.25Q182.07-14.25 182.07-13.2L182.07-13.2Q182.07-12.05 182.13-11.1L182.13-11.1 182.17-8.95 182.02-8.55 182.07-8.6Q182.07-8.45 182.02-8.4L182.02-8.4 182.02-8.2Q182.02-7.8 182.17-7.5L182.17-7.5 182.02-2.7 182.02-2.4Q182.02-1.55 182.07-1.4L182.07-1.4Q182.07-1.15 182.32-1.15L182.32-1.15 184.92-1.05Q186.07-1.05 186.5-1.03 186.92-1 187.02-1L187.02-1 187.17-1Q187.42-1 187.67-0.73 187.92-0.45 187.92-0.15L187.92-0.15Q187.92 0.45 187.13 0.5L187.13 0.5Q186.27 0.45 182.97 0.45L182.97 0.45 183.07 0.5Q182.57 0.5 182.13 0.55L182.13 0.55Q181.72 0.65 181.22 0.65L181.22 0.65ZM198.02 0.75Q197.22 0.75 196.3 0.23 195.37-0.3 194.77-1L194.77-1Q194.07-1.9 193.67-6.05 193.27-10.2 193.17-15.55L193.17-15.55Q193.17-16.75 193.12-17.35L193.12-17.35Q193.02-29.9 192.72-32.2L192.72-32.2 193.02-32.9Q194.17-32.75 194.17-30.15L194.17-30.15 194.32-16.9Q194.32-15.5 194.57-11.6L194.57-11.6Q194.87-8.1 194.87-6.3L194.87-6.3Q194.87-0.6 198.62-0.6L198.62-0.6Q200.92-0.6 201.57-11.1L201.57-11.1 201.62-12.1Q201.97-25.85 201.97-32.45L201.97-32.45 201.92-32.9Q201.87-33.1 201.87-33.35L201.87-33.35Q201.87-33.9 202.72-33.9L202.72-33.9Q203.32-33.9 203.47-33.6L203.47-33.6Q203.57-33.1 203.57-31.85L203.57-31.85Q203.57-28.05 203.27-26.75L203.27-26.75 203.32-26.45Q203.32-25.8 203.17-24.45L203.17-24.45 203.07-22.45 203.07-21.95Q203.12-21.75 203.12-21.45L203.12-21.45Q203.02-20.25 203.02-19.15L203.02-19.15Q202.97-18.8 202.97-18.05L202.97-18.05Q202.87-13.3 202.77-9.8L202.77-9.8Q202.62-5.45 201.57-2.45L201.57-2.45Q200.47 0.75 198.02 0.75L198.02 0.75ZM211.87 0.55Q211.47 0.55 211.2 0.25 210.92-0.05 210.92-0.5L210.92-0.5 210.87-2.05Q210.87-3.85 211.17-7.35L211.17-7.35Q211.42-11.25 211.42-12.6L211.42-12.6 211.37-14.85Q211.32-15.85 211.32-17.05L211.32-17.05Q211.32-19.05 211.47-23L211.47-23Q211.62-27.05 211.62-29L211.62-29 211.57-31.9 211.37-32.15 211.37-32.45Q211.37-33.75 212.42-33.75L212.42-33.75Q213.22-33.75 215.05-33.13 216.87-32.5 216.87-32.1L216.87-32.1 216.87-31.95Q217.77-30.5 218.1-29.05 218.42-27.6 218.42-25.35L218.42-25.35Q218.42-21.7 217.62-19.4L217.62-19.4 217.67-19.4Q217.47-19 216.87-18.1L216.87-18.1 216.17-17.05Q217.07-16.35 217.7-15 218.32-13.65 218.47-12.4L218.47-12.4Q218.52-11.95 218.57-11.3 218.62-10.65 218.67-9.75L218.67-9.75 218.72-8.45 218.72-7.75Q218.72-2.95 215.72-0.65L215.72-0.65Q214.17 0.55 211.87 0.55L211.87 0.55ZM213.02-18.05L213.42-18.05Q216.72-18.05 216.72-24.7L216.72-24.7Q216.72-25.25 216.62-26.85L216.62-26.85 216.57-27.8 216.47-27.9Q216.27-29.55 215.92-30.5L215.92-30.5Q215.67-31.2 215.12-31.63 214.57-32.05 213.92-32.05L213.92-32.05Q212.82-32.05 212.82-25.5L212.82-25.5Q212.82-24.25 212.87-23.8L212.87-23.8 212.87-22.8 212.87-21.1Q212.82-20.3 212.82-19.3L212.82-19.3 212.82-18.7Q212.82-18.7 212.92-18.4L212.92-18.4 213.02-18.05ZM212.67-1.4Q213.87-1.4 214.9-2.2 215.92-3 216.52-4.28 217.12-5.55 217.12-6.8L217.12-6.8 217.17-7 217.17-7.4 217.17-7.95Q217.17-10.05 216.82-11.95L216.82-11.95Q216.27-14.5 214.87-15.65L214.87-15.65Q214.07-16.3 212.97-16.3L212.97-16.3Q212.72-12.15 212.72-9.5L212.72-9.5 212.72-8.35Q212.72-6.9 212.87-6.05L212.87-6.05Q212.62-5.6 212.62-3.65L212.62-3.65 212.62-2.35 212.67-1.4Z" fill="#000000" data-fill-palette-color="primary"></path></g></svg></g></svg></g></svg></g></svg></g><g><svg viewBox="0 0 76.94287508485459 95.81252856950974" height="95.81252856950974" width="76.94287508485459"><g><svg xmlns="http://www.w3.org/2000/svg" data-name="Layer 1" viewBox="13.464859999999996 1.071452098997003 101.07031 125.85703294456646" x="0" y="0" height="95.81252856950974" width="76.94287508485459" class="icon-icon-0" data-fill-palette-color="accent" id="icon-0"><path d="M114.513 65.508a16.117 16.117 0 0 0-1.698-7.132 18.783 18.783 0 0 1-5.706 10.348c-3.306 8.807-19.811 17.162-43.132 17.162-23.321 0-39.803-8.354-43.086-17.162a20.186 20.186 0 0 1-5.638-10.529 16.002 16.002 0 0 0-1.788 7.313q0 19.325 6.679 31.426a36.62 36.62 0 0 0 16.8 15.736A5.945 5.945 0 0 1 40.34 117.991a6.834 6.834 0 0 0 1.426 4.188 6.752 6.752 0 0 0 3.713 2.423 74.878 74.878 0 0 0 37.042 0 6.806 6.806 0 0 0 5.139-6.611 5.919 5.919 0 0 1 3.396-5.321c15.713-7.471 23.479-23.071 23.479-47.162Zm-30.045 40.143A60.643 60.643 0 0 1 70.902 108.955a1.234 1.234 0 0 1-0.856-2.223 24.757 24.757 0 0 0 9.395-12.967 66.522 66.522 0 0 0 23.343-7.902C98.709 98.587 90.853 103.229 84.468 105.651Z" fill="#000000" data-fill-palette-color="accent"></path><path d="M25.352 65.169a3.397 3.397 0 0 0 5.569-2.649 3.223 3.223 0 0 0-1.041-2.423A7.774 7.774 0 0 1 32.189 47.146a3.408 3.408 0 0 0 2.038-5.049 9.441 9.441 0 0 1 7.381-14.332 17.568 17.568 0 0 0-0.544 2.151 21.806 21.806 0 0 0-0.068 8.038 3.149 3.149 0 0 0 4.167 2.423 3.837 3.837 0 0 0 2.49-3.532 4.395 4.395 0 0 0-0.045-0.544 15.129 15.129 0 0 1 0.113-5.049A14.673 14.673 0 0 1 76.77 33.154a20.622 20.622 0 0 1 6-2.015c0.113 0 0.249-0.113 0.339-0.294l0.159-0.34A21.441 21.441 0 0 0 50.189 16.241 21.613 21.613 0 0 0 44.981 21.177 16.224 16.224 0 0 0 26.891 42.324 14.567 14.567 0 0 0 25.352 65.169Z" fill="#000000" data-fill-palette-color="accent"></path><path d="M99.977 62.044a3.378 3.378 0 0 0 5.57-0.226 12.767 12.767 0 0 0 1.901-6.657 12.631 12.631 0 0 0-7.471-11.547 21.005 21.005 0 0 1-0.113 8.808 5.05 5.05 0 0 1 0.792 2.671 5.865 5.865 0 0 1-0.883 3.17A3.311 3.311 0 0 0 99.977 62.044Z" fill="#000000" data-fill-palette-color="accent"></path><path d="M83.638 71.307a3.494 3.494 0 0 0 3.199 2.279h0.003a3.395 3.395 0 0 0 3.197-4.566A12.881 12.881 0 0 0 78.015 60.726a12.323 12.323 0 0 0-6.245 1.793 12.879 12.879 0 0 0-23.113 2.751 10.325 10.325 0 0 0-1.14-0.062 10.654 10.654 0 0 0-9.352 5.556 3.41 3.41 0 0 0 2.968 5.064 3.609 3.609 0 0 0 3.06-1.929 3.856 3.856 0 0 1 3.324-1.899 3.955 3.955 0 0 1 2.082 0.608 3.396 3.396 0 0 0 5.186-3.268 6.073 6.073 0 0 1 12.081-0.871 3.404 3.404 0 0 0 6.012 1.855c0.648-0.781 2.832-2.806 5.137-2.806A6.077 6.077 0 0 1 83.638 71.307Z" fill="#000000" data-fill-palette-color="accent"></path><path d="M44.021 57.346a4.457 4.457 0 1 0-4.457 4.458A4.457 4.457 0 0 0 44.021 57.346Z" fill="#000000" data-fill-palette-color="accent"></path><path d="M61.992 48.441a3.396 3.396 0 1 0-3.396-3.396A3.396 3.396 0 0 0 61.992 48.441Z" fill="#000000" data-fill-palette-color="accent"></path><circle cx="76.99229" cy="77.30831" r="3.4" fill="#000000" data-fill-palette-color="accent"></circle><path d="M61.992 71.577a3.396 3.396 0 1 0 3.397 3.396A3.396 3.396 0 0 0 61.992 71.577Z" fill="#000000" data-fill-palette-color="accent"></path><circle cx="49.82285" cy="46.74265" r="3.5" transform="translate(-12.42812 74.88528) rotate(-67.49996)" fill="#000000" data-fill-palette-color="accent"></circle><circle cx="65.01133" cy="31.12964" r="5.5" fill="#000000" data-fill-palette-color="accent"></circle><path d="M73.328 43.682a20.308 20.308 0 0 0-2.4 10.143 16.507 16.507 0 0 1 2.468 1.88 16.843 16.843 0 0 1 4.619-0.634A18.445 18.445 0 0 1 89.494 59.101a17.293 17.293 0 0 0 3.306-3.894A15.291 15.291 0 0 0 93.909 42.799a6.1 6.1 0 0 1 0.815-5.592l18.385-26.241a6.28 6.28 0 0 0-1.947-9.011 6.076 6.076 0 0 0-3.193-0.883A6.301 6.301 0 0 0 102.309 4.581L88.181 33.335a6.101 6.101 0 0 1-4.528 3.396A15.415 15.415 0 0 0 73.328 43.682Z" fill="#000000" data-fill-palette-color="accent"></path></svg></g></svg></g></svg></g><defs></defs></svg><rect width="395.5199999999999" height="74.09494600723151" fill="none" stroke="none" visibility="hidden"></rect></g></svg></g></svg>